<svg id="레이어_2" data-name="레이어 2" xmlns="http://www.w3.org/2000/svg" viewBox="0 0 612 792"><defs><style>.cls-1{font-size:15.19px;stroke:#000;stroke-miterlimit:10;font-family:GulimChe;letter-spacing:0.07em;}.cls-2{fill:#086804;}.cls-3{fill:#97930a;}.cls-4{fill:#09090d;}.cls-5{fill:#770a09;}.cls-6{fill:#1520ab;}</style></defs><title>대지 1</title><text class="cls-1" transform="translate(243.16 410.4) scale(1.18 1)">SEOJUN ENG</text><path class="cls-2" d="M319.7,426.68s26.43-3.19,33.32-10.59c0,0,6.13-5.88,6.77-7.54,0,0,1.53-4.34,0-7.27,0,0-4.56-9.37-10.81-11a63.77,63.77,0,0,0-20.6-6,139.57,139.57,0,0,0-20.55-1.66l-18.64.64L320.72,382s5.75-.51,22.85,3.19c0,0,18.26,3.7,25.92,11.36,0,0,10.08,8.81-2.17,18.51a43.91,43.91,0,0,1-19.53,8.81S340,426.3,319.7,426.68Z"/><path class="cls-3" d="M267.49,421.32s32.55,6.13,55.91.89c0,0,24.64-5.74,28.09-12.76,0,0,3.83-8.13-4.85-13.45,0,0-7.53-5.7-24.51-8.89a155.07,155.07,0,0,0-28.22-1.41s-16.72-.38-31.27,3.07l-14.81,5.1s16.34-7.91,22.6-7.27l15.7-2.3s24.89-.13,30.64.89c1.14.09,22.7.35,35.56,11.36,0,0,11,6,1.71,15.19,0,0-7,7.15-20.17,9.45,0,0-5.36,2-19.4,3.7,0,0-11.36,1.79-20.56,1C293.91,425.91,268.13,423.11,267.49,421.32Z"/><path class="cls-3" d="M267.4,386.77a104.94,104.94,0,0,1,18.73-2.47c9.15-.21-16.94,2.72-16.94,2.72"/><path class="cls-3" d="M306.5,425.79s14.31-1.37,15.65-2"/><path class="cls-3" d="M306,424.23S326.93,422,327.89,421l-6.66,2.32"/><path class="cls-4" d="M251.49,375.4s6.21,3.83,3.62,12.26l13.27-4.17s2.68-7.87-5.06-11.83Z"/><path class="cls-5" d="M276.54,368l-9.7,2.17s6.81,3.7,5.4,12.72l9.49-2.89S283.82,372,276.54,368Z"/><path class="cls-6" d="M287.74,364.38l-7.23,2.17s6.6,3.49,4.47,12.09l8-2.68S295.15,367.11,287.74,364.38Z"/><path class="cls-2" d="M323.54,382s-30.39.09-34.35,1.24"/></svg>